<mxfile host="Electron" modified="2023-11-07T15:10:31.096Z" agent="Mozilla/5.0 (Windows NT 10.0; Win64; x64) AppleWebKit/537.36 (KHTML, like Gecko) draw.io/22.0.2 Chrome/114.0.5735.289 Electron/25.8.4 Safari/537.36" etag="9CoNDMx3FC731dYTJDdU" version="22.0.2" type="device">
  <diagram name="Page-1" id="qFCPr3h47qFFb1gkWBrg">
    <mxGraphModel dx="2752" dy="2570" grid="1" gridSize="10" guides="1" tooltips="1" connect="1" arrows="1" fold="1" page="1" pageScale="1" pageWidth="850" pageHeight="1100" math="0" shadow="0">
      <root>
        <mxCell id="0" />
        <mxCell id="1" parent="0" />
        <mxCell id="CpOMK_Is4fyslUZbquwD-1" value="" style="shape=callout;whiteSpace=wrap;html=1;perimeter=calloutPerimeter;fillStyle=auto;rounded=0;shadow=0;rotation=90;fontStyle=1" parent="1" vertex="1">
          <mxGeometry x="200" y="-926" width="312.5" height="345" as="geometry" />
        </mxCell>
        <mxCell id="CpOMK_Is4fyslUZbquwD-2" value="" style="shape=callout;whiteSpace=wrap;html=1;perimeter=calloutPerimeter;fillStyle=auto;rounded=0;shadow=0;rotation=-90;fontStyle=1" parent="1" vertex="1">
          <mxGeometry x="-1088" y="-1118" width="610" height="844" as="geometry" />
        </mxCell>
        <mxCell id="CpOMK_Is4fyslUZbquwD-3" value="" style="rounded=0;whiteSpace=wrap;html=1;dashed=1;fontStyle=1" parent="1" vertex="1">
          <mxGeometry x="-1190" y="-956" width="790" height="540" as="geometry" />
        </mxCell>
        <mxCell id="CpOMK_Is4fyslUZbquwD-4" value="" style="rounded=0;whiteSpace=wrap;html=1;fontStyle=1" parent="1" vertex="1">
          <mxGeometry x="-650" y="-906" width="230" height="455" as="geometry" />
        </mxCell>
        <mxCell id="CpOMK_Is4fyslUZbquwD-5" value="Login for flight planning" style="rounded=0;whiteSpace=wrap;html=1;fillColor=#d5e8d4;strokeColor=#82b366;fontStyle=1" parent="1" vertex="1">
          <mxGeometry x="-350" y="-740.25" width="120" height="60" as="geometry" />
        </mxCell>
        <mxCell id="CpOMK_Is4fyslUZbquwD-6" value="&lt;div&gt;Flight Authorization&amp;nbsp;&lt;/div&gt;&lt;div&gt;Status&lt;/div&gt;" style="rhombus;whiteSpace=wrap;html=1;fillColor=#f8cecc;strokeColor=#b85450;fontStyle=1" parent="1" vertex="1">
          <mxGeometry x="-328" y="-444" width="145" height="120" as="geometry" />
        </mxCell>
        <mxCell id="CpOMK_Is4fyslUZbquwD-7" value="JWT token" style="rounded=0;whiteSpace=wrap;html=1;fillColor=#f5f5f5;fontColor=#333333;strokeColor=#666666;fontStyle=1" parent="1" vertex="1">
          <mxGeometry x="-315.5" y="-686" width="120" height="60" as="geometry" />
        </mxCell>
        <mxCell id="CpOMK_Is4fyslUZbquwD-8" value="" style="endArrow=classic;html=1;rounded=0;fontStyle=1;exitX=0.457;exitY=1.002;exitDx=0;exitDy=0;exitPerimeter=0;" parent="1" source="CpOMK_Is4fyslUZbquwD-7" edge="1">
          <mxGeometry width="50" height="50" relative="1" as="geometry">
            <mxPoint x="-260" y="-630" as="sourcePoint" />
            <mxPoint x="320" y="-498.27" as="targetPoint" />
            <Array as="points">
              <mxPoint x="-260" y="-498.02" />
            </Array>
          </mxGeometry>
        </mxCell>
        <mxCell id="CpOMK_Is4fyslUZbquwD-9" value="" style="endArrow=classic;html=1;rounded=0;exitX=0.5;exitY=1;exitDx=0;exitDy=0;fontStyle=1" parent="1" edge="1">
          <mxGeometry width="50" height="50" relative="1" as="geometry">
            <mxPoint x="-256" y="-324" as="sourcePoint" />
            <mxPoint x="-256" y="-244" as="targetPoint" />
          </mxGeometry>
        </mxCell>
        <mxCell id="CpOMK_Is4fyslUZbquwD-10" value="flight_approved" style="text;html=1;strokeColor=none;fillColor=none;align=center;verticalAlign=middle;whiteSpace=wrap;rounded=0;fontStyle=1" parent="1" vertex="1">
          <mxGeometry x="-235.5" y="-304" width="60" height="30" as="geometry" />
        </mxCell>
        <mxCell id="CpOMK_Is4fyslUZbquwD-11" value="" style="endArrow=classic;html=1;rounded=0;exitX=1;exitY=0.5;exitDx=0;exitDy=0;entryX=0.059;entryY=0.522;entryDx=0;entryDy=0;entryPerimeter=0;fontStyle=1" parent="1" source="CpOMK_Is4fyslUZbquwD-6" target="CpOMK_Is4fyslUZbquwD-57" edge="1">
          <mxGeometry width="50" height="50" relative="1" as="geometry">
            <mxPoint x="-205.5" y="-464" as="sourcePoint" />
            <mxPoint x="-40" y="-340" as="targetPoint" />
            <Array as="points">
              <mxPoint x="-150" y="-384" />
            </Array>
          </mxGeometry>
        </mxCell>
        <mxCell id="CpOMK_Is4fyslUZbquwD-12" value="flight_rejected" style="text;html=1;strokeColor=none;fillColor=none;align=center;verticalAlign=middle;whiteSpace=wrap;rounded=0;fontStyle=1" parent="1" vertex="1">
          <mxGeometry x="-134.25" y="-380" width="60" height="30" as="geometry" />
        </mxCell>
        <mxCell id="CpOMK_Is4fyslUZbquwD-13" value="" style="endArrow=classic;html=1;rounded=0;exitX=0.5;exitY=0;exitDx=0;exitDy=0;fontStyle=1" parent="1" source="CpOMK_Is4fyslUZbquwD-5" edge="1">
          <mxGeometry width="50" height="50" relative="1" as="geometry">
            <mxPoint x="-325.5" y="-704" as="sourcePoint" />
            <mxPoint x="-290" y="-830" as="targetPoint" />
          </mxGeometry>
        </mxCell>
        <mxCell id="CpOMK_Is4fyslUZbquwD-14" value="failure" style="text;html=1;strokeColor=none;fillColor=none;align=center;verticalAlign=middle;whiteSpace=wrap;rounded=0;fontStyle=1" parent="1" vertex="1">
          <mxGeometry x="-325.5" y="-800" width="25.5" height="39" as="geometry" />
        </mxCell>
        <mxCell id="CpOMK_Is4fyslUZbquwD-15" value="flight_submitted" style="text;html=1;strokeColor=none;fillColor=none;align=center;verticalAlign=middle;whiteSpace=wrap;rounded=0;fontStyle=1" parent="1" vertex="1">
          <mxGeometry x="-51.75" y="-519" width="60" height="30" as="geometry" />
        </mxCell>
        <mxCell id="CpOMK_Is4fyslUZbquwD-16" value="Upload Mission&amp;nbsp; to vehicle" style="rounded=1;whiteSpace=wrap;html=1;fontStyle=1" parent="1" vertex="1">
          <mxGeometry x="-315.5" y="-254" width="120" height="60" as="geometry" />
        </mxCell>
        <mxCell id="CpOMK_Is4fyslUZbquwD-17" style="edgeStyle=orthogonalEdgeStyle;rounded=0;orthogonalLoop=1;jettySize=auto;html=1;entryX=0.5;entryY=1;entryDx=0;entryDy=0;fontStyle=1" parent="1" source="CpOMK_Is4fyslUZbquwD-18" target="CpOMK_Is4fyslUZbquwD-56" edge="1">
          <mxGeometry relative="1" as="geometry">
            <mxPoint x="440" y="-310" as="targetPoint" />
          </mxGeometry>
        </mxCell>
        <mxCell id="CpOMK_Is4fyslUZbquwD-18" value="Submit telemetry via UTM Adapter" style="rounded=0;whiteSpace=wrap;html=1;fillColor=#d5e8d4;strokeColor=#82b366;fontStyle=1" parent="1" vertex="1">
          <mxGeometry x="-315.5" y="-124" width="120" height="60" as="geometry" />
        </mxCell>
        <mxCell id="CpOMK_Is4fyslUZbquwD-19" value="" style="endArrow=classic;html=1;rounded=0;exitX=0.5;exitY=1;exitDx=0;exitDy=0;fontStyle=1" parent="1" edge="1">
          <mxGeometry width="50" height="50" relative="1" as="geometry">
            <mxPoint x="-256" y="-184" as="sourcePoint" />
            <mxPoint x="-255.5" y="-124" as="targetPoint" />
          </mxGeometry>
        </mxCell>
        <mxCell id="CpOMK_Is4fyslUZbquwD-20" value="Automatic GeoFence" style="rounded=0;whiteSpace=wrap;html=1;fontStyle=1" parent="1" vertex="1">
          <mxGeometry x="-650" y="-906" width="150" height="30" as="geometry" />
        </mxCell>
        <mxCell id="CpOMK_Is4fyslUZbquwD-21" value="Waypoint button" style="rounded=0;whiteSpace=wrap;html=1;fontStyle=1" parent="1" vertex="1">
          <mxGeometry x="-615" y="-821" width="100" height="30" as="geometry" />
        </mxCell>
        <mxCell id="CpOMK_Is4fyslUZbquwD-22" value="&lt;div style=&quot;text-align: left;&quot;&gt;&lt;span style=&quot;background-color: initial;&quot;&gt;User should add the waypoint on map.&lt;/span&gt;&lt;/div&gt;" style="rounded=0;whiteSpace=wrap;html=1;fontStyle=1" parent="1" vertex="1">
          <mxGeometry x="-615" y="-791" width="175" height="60" as="geometry" />
        </mxCell>
        <mxCell id="CpOMK_Is4fyslUZbquwD-23" value="Fence_Calculator" style="rounded=0;whiteSpace=wrap;html=1;fontStyle=1" parent="1" vertex="1">
          <mxGeometry x="-615" y="-701" width="100" height="30" as="geometry" />
        </mxCell>
        <mxCell id="CpOMK_Is4fyslUZbquwD-24" value="&lt;div style=&quot;text-align: left;&quot;&gt;Using waypoints compute&amp;nbsp; all the polygon latitude and longitude&lt;/div&gt;" style="rounded=0;whiteSpace=wrap;html=1;fontStyle=1" parent="1" vertex="1">
          <mxGeometry x="-615" y="-671" width="175" height="60" as="geometry" />
        </mxCell>
        <mxCell id="CpOMK_Is4fyslUZbquwD-25" value="Display Polygon" style="rounded=0;whiteSpace=wrap;html=1;fontStyle=1" parent="1" vertex="1">
          <mxGeometry x="-615" y="-571" width="100" height="30" as="geometry" />
        </mxCell>
        <mxCell id="CpOMK_Is4fyslUZbquwD-26" value="&lt;div style=&quot;text-align: left;&quot;&gt;Add the polygon on the flightmap&lt;/div&gt;" style="rounded=0;whiteSpace=wrap;html=1;fontStyle=1" parent="1" vertex="1">
          <mxGeometry x="-615" y="-541" width="175" height="60" as="geometry" />
        </mxCell>
        <mxCell id="CpOMK_Is4fyslUZbquwD-27" value="" style="rounded=0;whiteSpace=wrap;html=1;fontStyle=1" parent="1" vertex="1">
          <mxGeometry x="-890" y="-906" width="230" height="455" as="geometry" />
        </mxCell>
        <mxCell id="CpOMK_Is4fyslUZbquwD-28" value="Manual GeoFence" style="rounded=0;whiteSpace=wrap;html=1;fontStyle=1" parent="1" vertex="1">
          <mxGeometry x="-890" y="-906" width="150" height="30" as="geometry" />
        </mxCell>
        <mxCell id="CpOMK_Is4fyslUZbquwD-29" value="Waypoint button" style="rounded=0;whiteSpace=wrap;html=1;fontStyle=1" parent="1" vertex="1">
          <mxGeometry x="-855" y="-821" width="100" height="30" as="geometry" />
        </mxCell>
        <mxCell id="CpOMK_Is4fyslUZbquwD-30" value="&lt;div style=&quot;text-align: left;&quot;&gt;&lt;span style=&quot;background-color: initial;&quot;&gt;User should add the waypoint on map.&lt;/span&gt;&lt;/div&gt;" style="rounded=0;whiteSpace=wrap;html=1;fontStyle=1" parent="1" vertex="1">
          <mxGeometry x="-855" y="-791" width="175" height="60" as="geometry" />
        </mxCell>
        <mxCell id="CpOMK_Is4fyslUZbquwD-31" value="Add points" style="rounded=0;whiteSpace=wrap;html=1;fontStyle=1" parent="1" vertex="1">
          <mxGeometry x="-855" y="-701" width="100" height="30" as="geometry" />
        </mxCell>
        <mxCell id="CpOMK_Is4fyslUZbquwD-32" value="&lt;div style=&quot;text-align: left;&quot;&gt;User will manually add the points for Geofence&amp;nbsp;&lt;/div&gt;" style="rounded=0;whiteSpace=wrap;html=1;fontStyle=1" parent="1" vertex="1">
          <mxGeometry x="-855" y="-671" width="175" height="60" as="geometry" />
        </mxCell>
        <mxCell id="CpOMK_Is4fyslUZbquwD-33" value="Display Polygon" style="rounded=0;whiteSpace=wrap;html=1;fontStyle=1" parent="1" vertex="1">
          <mxGeometry x="-855" y="-571" width="100" height="30" as="geometry" />
        </mxCell>
        <mxCell id="CpOMK_Is4fyslUZbquwD-34" value="&lt;div style=&quot;text-align: left;&quot;&gt;Add the polygon on the flightmap&lt;/div&gt;" style="rounded=0;whiteSpace=wrap;html=1;fontStyle=1" parent="1" vertex="1">
          <mxGeometry x="-855" y="-541" width="175" height="60" as="geometry" />
        </mxCell>
        <mxCell id="CpOMK_Is4fyslUZbquwD-35" value="" style="rounded=0;whiteSpace=wrap;html=1;fontStyle=1" parent="1" vertex="1">
          <mxGeometry x="-1160" y="-906" width="260" height="170" as="geometry" />
        </mxCell>
        <mxCell id="CpOMK_Is4fyslUZbquwD-36" value="Altitude Fence" style="rounded=0;whiteSpace=wrap;html=1;fontStyle=1" parent="1" vertex="1">
          <mxGeometry x="-1160" y="-906" width="150" height="30" as="geometry" />
        </mxCell>
        <mxCell id="CpOMK_Is4fyslUZbquwD-37" value="Min and Max altitude" style="rounded=0;whiteSpace=wrap;html=1;fontStyle=1" parent="1" vertex="1">
          <mxGeometry x="-1117.5" y="-856" width="117.5" height="30" as="geometry" />
        </mxCell>
        <mxCell id="CpOMK_Is4fyslUZbquwD-38" value="&lt;div style=&quot;text-align: left;&quot;&gt;User have to add the min and max altiude fence for flight plan&lt;/div&gt;" style="rounded=0;whiteSpace=wrap;html=1;fontStyle=1" parent="1" vertex="1">
          <mxGeometry x="-1117.5" y="-826" width="175" height="60" as="geometry" />
        </mxCell>
        <mxCell id="CpOMK_Is4fyslUZbquwD-39" value="" style="rounded=0;whiteSpace=wrap;html=1;fontStyle=1" parent="1" vertex="1">
          <mxGeometry x="-1160" y="-731" width="260" height="275" as="geometry" />
        </mxCell>
        <mxCell id="CpOMK_Is4fyslUZbquwD-40" value="Start and End Time" style="rounded=0;whiteSpace=wrap;html=1;fontStyle=1" parent="1" vertex="1">
          <mxGeometry x="-1160" y="-731" width="150" height="30" as="geometry" />
        </mxCell>
        <mxCell id="CpOMK_Is4fyslUZbquwD-41" value="Start Date &amp;amp; Time" style="rounded=0;whiteSpace=wrap;html=1;fontStyle=1" parent="1" vertex="1">
          <mxGeometry x="-1146.25" y="-686" width="117.5" height="30" as="geometry" />
        </mxCell>
        <mxCell id="CpOMK_Is4fyslUZbquwD-42" value="&lt;div style=&quot;text-align: left;&quot;&gt;By defaut take the current time &amp;amp; upcomming date and time&lt;/div&gt;" style="rounded=0;whiteSpace=wrap;html=1;fontStyle=1" parent="1" vertex="1">
          <mxGeometry x="-1146.25" y="-656" width="175" height="60" as="geometry" />
        </mxCell>
        <mxCell id="CpOMK_Is4fyslUZbquwD-43" value="End Date &amp;amp; Time" style="rounded=0;whiteSpace=wrap;html=1;fontStyle=1" parent="1" vertex="1">
          <mxGeometry x="-1146.25" y="-581" width="117.5" height="30" as="geometry" />
        </mxCell>
        <mxCell id="CpOMK_Is4fyslUZbquwD-44" value="&lt;div style=&quot;text-align: left;&quot;&gt;&lt;ul&gt;&lt;li&gt;Date should be same.&lt;/li&gt;&lt;li&gt;keep same hour as privious and give access to update min and sec to user.&lt;/li&gt;&lt;/ul&gt;&lt;/div&gt;" style="rounded=0;whiteSpace=wrap;html=1;fontStyle=1" parent="1" vertex="1">
          <mxGeometry x="-1146.25" y="-551" width="176.25" height="75" as="geometry" />
        </mxCell>
        <mxCell id="CpOMK_Is4fyslUZbquwD-45" value="QGCS Flight Planning Interface" style="rounded=0;whiteSpace=wrap;html=1;fontStyle=1" parent="1" vertex="1">
          <mxGeometry x="-1190" y="-956" width="150" height="30" as="geometry" />
        </mxCell>
        <mxCell id="CpOMK_Is4fyslUZbquwD-46" value="" style="rounded=0;whiteSpace=wrap;html=1;fontStyle=1" parent="1" vertex="1">
          <mxGeometry x="233.75" y="-862.25" width="260" height="250" as="geometry" />
        </mxCell>
        <mxCell id="CpOMK_Is4fyslUZbquwD-47" value="User ID" style="rounded=0;whiteSpace=wrap;html=1;fillColor=#fff2cc;strokeColor=#d6b656;fontStyle=1" parent="1" vertex="1">
          <mxGeometry x="305" y="-822.25" width="117.5" height="20" as="geometry" />
        </mxCell>
        <mxCell id="CpOMK_Is4fyslUZbquwD-48" value="&lt;div style=&quot;text-align: left;&quot;&gt;Oauth2.0 client credential grant flow&lt;br&gt;&lt;/div&gt;" style="rounded=0;whiteSpace=wrap;html=1;fontStyle=1" parent="1" vertex="1">
          <mxGeometry x="246.25" y="-712.25" width="237.5" height="80" as="geometry" />
        </mxCell>
        <mxCell id="CpOMK_Is4fyslUZbquwD-49" value="Password" style="rounded=0;whiteSpace=wrap;html=1;fillColor=#fff2cc;strokeColor=#d6b656;fontStyle=1" parent="1" vertex="1">
          <mxGeometry x="303.75" y="-792.25" width="117.5" height="20" as="geometry" />
        </mxCell>
        <mxCell id="CpOMK_Is4fyslUZbquwD-50" value="Login" style="rounded=0;whiteSpace=wrap;html=1;fillColor=#dae8fc;strokeColor=#6c8ebf;fontStyle=1" parent="1" vertex="1">
          <mxGeometry x="277.5" y="-752.25" width="170" height="20" as="geometry" />
        </mxCell>
        <mxCell id="CpOMK_Is4fyslUZbquwD-51" value="Authentication and Authorization" style="rounded=0;whiteSpace=wrap;html=1;fontStyle=1" parent="1" vertex="1">
          <mxGeometry x="213.75" y="-912.25" width="234.25" height="40" as="geometry" />
        </mxCell>
        <mxCell id="CpOMK_Is4fyslUZbquwD-52" value="success" style="text;html=1;strokeColor=none;fillColor=none;align=center;verticalAlign=middle;whiteSpace=wrap;rounded=0;fontStyle=1" parent="1" vertex="1">
          <mxGeometry x="-328" y="-334" width="60" height="30" as="geometry" />
        </mxCell>
        <mxCell id="CpOMK_Is4fyslUZbquwD-53" value="Notification" style="ellipse;shape=cloud;whiteSpace=wrap;html=1;fontStyle=1" parent="1" vertex="1">
          <mxGeometry x="-355.5" y="-912.25" width="120" height="80" as="geometry" />
        </mxCell>
        <mxCell id="CpOMK_Is4fyslUZbquwD-54" value="JWT" style="rounded=0;whiteSpace=wrap;html=1;fillColor=#f5f5f5;fontColor=#333333;strokeColor=#666666;fontStyle=1" parent="1" vertex="1">
          <mxGeometry x="-303" y="-70" width="120" height="60" as="geometry" />
        </mxCell>
        <mxCell id="CpOMK_Is4fyslUZbquwD-55" style="edgeStyle=orthogonalEdgeStyle;rounded=0;orthogonalLoop=1;jettySize=auto;html=1;entryX=0.5;entryY=0;entryDx=0;entryDy=0;fontStyle=1" parent="1" source="CpOMK_Is4fyslUZbquwD-56" target="CpOMK_Is4fyslUZbquwD-6" edge="1">
          <mxGeometry relative="1" as="geometry">
            <Array as="points">
              <mxPoint x="-255" y="-480" />
            </Array>
          </mxGeometry>
        </mxCell>
        <mxCell id="CpOMK_Is4fyslUZbquwD-56" value="OpenUTM&lt;br&gt;/ Any UTM System" style="rounded=1;whiteSpace=wrap;html=1;fillColor=#e1d5e7;strokeColor=#9673a6;fontStyle=1" parent="1" vertex="1">
          <mxGeometry x="320" y="-554" width="210" height="150" as="geometry" />
        </mxCell>
        <mxCell id="CpOMK_Is4fyslUZbquwD-57" value="Notification" style="ellipse;shape=cloud;whiteSpace=wrap;html=1;fontStyle=1" parent="1" vertex="1">
          <mxGeometry x="-40" y="-419" width="118.25" height="69" as="geometry" />
        </mxCell>
        <mxCell id="rH-dtueQLRuQiUCEyKH_-1" value="flight_activated" style="text;html=1;strokeColor=none;fillColor=none;align=center;verticalAlign=middle;whiteSpace=wrap;rounded=0;fontStyle=1" parent="1" vertex="1">
          <mxGeometry x="-235.5" y="-174" width="60" height="30" as="geometry" />
        </mxCell>
        <mxCell id="rH-dtueQLRuQiUCEyKH_-2" value="flight_approved" style="text;html=1;strokeColor=none;fillColor=none;align=center;verticalAlign=middle;whiteSpace=wrap;rounded=0;fontStyle=1" parent="1" vertex="1">
          <mxGeometry x="-45.5" y="-481" width="60" height="30" as="geometry" />
        </mxCell>
        <mxCell id="rH-dtueQLRuQiUCEyKH_-3" value="telemetry_data" style="text;html=1;strokeColor=none;fillColor=none;align=center;verticalAlign=middle;whiteSpace=wrap;rounded=0;fontStyle=1" parent="1" vertex="1">
          <mxGeometry x="69.5" y="-124" width="60" height="30" as="geometry" />
        </mxCell>
        <mxCell id="sekVhxWusyh-sbaqedZ3-4" value="" style="endArrow=none;dashed=1;html=1;dashPattern=1 3;strokeWidth=2;rounded=0;" edge="1" parent="1">
          <mxGeometry width="50" height="50" relative="1" as="geometry">
            <mxPoint x="160" y="-20" as="sourcePoint" />
            <mxPoint x="173.75" y="-1030" as="targetPoint" />
          </mxGeometry>
        </mxCell>
        <mxCell id="sekVhxWusyh-sbaqedZ3-5" value="&lt;font style=&quot;font-size: 14px;&quot;&gt;Desktop&lt;/font&gt;" style="text;html=1;strokeColor=none;fillColor=none;align=center;verticalAlign=middle;whiteSpace=wrap;rounded=0;" vertex="1" parent="1">
          <mxGeometry x="96.75" y="-1020" width="60" height="30" as="geometry" />
        </mxCell>
        <mxCell id="sekVhxWusyh-sbaqedZ3-6" value="&lt;font style=&quot;font-size: 14px;&quot;&gt;Web&lt;/font&gt;" style="text;html=1;strokeColor=none;fillColor=none;align=center;verticalAlign=middle;whiteSpace=wrap;rounded=0;" vertex="1" parent="1">
          <mxGeometry x="173.75" y="-1020" width="60" height="30" as="geometry" />
        </mxCell>
        <mxCell id="sekVhxWusyh-sbaqedZ3-8" value="" style="endArrow=classic;startArrow=classic;html=1;rounded=0;" edge="1" parent="1">
          <mxGeometry width="50" height="50" relative="1" as="geometry">
            <mxPoint x="-210" y="-720" as="sourcePoint" />
            <mxPoint x="204.5" y="-721" as="targetPoint" />
          </mxGeometry>
        </mxCell>
      </root>
    </mxGraphModel>
  </diagram>
</mxfile>
